<?xml version="1.0" encoding="utf-8"?>
<!-- Generator: Adobe Illustrator 16.0.0, SVG Export Plug-In . SVG Version: 6.00 Build 0)  -->
<!DOCTYPE svg PUBLIC "-//W3C//DTD SVG 1.1//EN" "http://www.w3.org/Graphics/SVG/1.1/DTD/svg11.dtd">
<svg version="1.1" id="图层_1" xmlns="http://www.w3.org/2000/svg" xmlns:xlink="http://www.w3.org/1999/xlink" x="0px" y="0px"
	 width="166px" height="175px" viewBox="0 0 166 175" enable-background="new 0 0 166 175" xml:space="preserve">
<g>
	<path fill="none" stroke="#E3E5E9" stroke-width="8" stroke-miterlimit="10" d="M150.917,85.625v1.354L150.9,87.1
		c0,10.3,0.199,20.3-0.801,29.7c-1,9.4-3.899,20.4-11.699,27c-8.7,7.3-16.7,8.7-26,9.2c-6.7,0.4-18.7,0.8-27,1l0,0
		c-0.603,0-1.2,0-1.9,0s-1.3,0-1.9,0l0,0c-8.3-0.1-20.3-0.6-27-1c-9.3-0.5-17.3-1.9-26-9.2c-7.8-6.6-10.7-17.7-11.7-27
		c-0.9-8.3-0.8-17.2-0.8-26.3l0,0V79.2l0,0c0-8.1,0-15.9,0.8-23.3c1-9.3,3.9-20.4,11.7-27c8.7-7.3,16.7-8.7,26-9.2
		c7.8-0.4,18.9-0.5,26.8-0.5l0,0h8.1l0,0c7.4,0,16.3,0.1,22.8,0.5c9.3,0.5,17.3,1.9,26,9.2c7.8,6.6,10.8,17.7,11.7,27
		C150.9,65.2,150.917,75.225,150.917,85.625L150.917,85.625z"/>
</g>
<g>
	<rect x="50.5" y="61.5" fill-rule="evenodd" clip-rule="evenodd" fill="#E3E5E9" width="5" height="54"/>
	<rect x="50.5" y="119.5" fill-rule="evenodd" clip-rule="evenodd" fill="#E3E5E9" width="5" height="8"/>
	<rect x="50.5" y="143.5" fill-rule="evenodd" clip-rule="evenodd" fill="#E3E5E9" width="5" height="3"/>
	<rect x="50.5" y="131.5" fill-rule="evenodd" clip-rule="evenodd" fill="#E3E5E9" width="5" height="8"/>
</g>
<g>
	<rect x="113.5" y="61.5" fill-rule="evenodd" clip-rule="evenodd" fill="#E3E5E9" width="5" height="54"/>
	<rect x="113.5" y="119.5" fill-rule="evenodd" clip-rule="evenodd" fill="#E3E5E9" width="5" height="8"/>
	<rect x="113.5" y="143.5" fill-rule="evenodd" clip-rule="evenodd" fill="#E3E5E9" width="5" height="3"/>
	<rect x="113.5" y="131.5" fill-rule="evenodd" clip-rule="evenodd" fill="#E3E5E9" width="5" height="8"/>
</g>
<g>
	<path fill-rule="evenodd" clip-rule="evenodd" fill="#E3E5E9" d="M39.211,62.848l29.284-7.435c1.067-0.286,2.163,0.347,2.449,1.414
		l0.259,0.967c0.286,1.066-0.347,2.163-1.414,2.449l-29.284,7.436c-1.067,0.285-2.164-0.348-2.449-1.414l-0.259-0.967
		C37.511,64.231,38.144,63.133,39.211,62.848z"/>
	<path fill-rule="evenodd" clip-rule="evenodd" fill="#E3E5E9" d="M40.086,49.284l29.69,5.598c1.088,0.19,1.815,1.227,1.625,2.315
		l-0.172,0.985c-0.19,1.088-1.228,1.815-2.315,1.625l-29.69-5.599c-1.088-0.19-1.815-1.227-1.625-2.314l0.172-0.985
		C37.961,49.821,38.998,49.093,40.086,49.284z"/>
</g>
<g>
	<path fill-rule="evenodd" clip-rule="evenodd" fill="#E3E5E9" d="M131.203,65.297l-0.259,0.967
		c-0.285,1.066-1.382,1.699-2.449,1.414l-29.284-7.436c-1.067-0.286-1.7-1.383-1.414-2.449l0.259-0.967
		c0.286-1.066,1.382-1.7,2.449-1.414l29.284,7.435C130.856,63.133,131.489,64.231,131.203,65.297z"/>
	<path fill-rule="evenodd" clip-rule="evenodd" fill="#E3E5E9" d="M131.229,50.909l0.172,0.985c0.19,1.088-0.537,2.124-1.625,2.314
		l-29.69,5.599c-1.088,0.19-2.125-0.537-2.315-1.625l-0.172-0.985c-0.19-1.088,0.537-2.125,1.625-2.315l29.69-5.598
		C130.002,49.093,131.039,49.821,131.229,50.909z"/>
</g>
<g>
	
		<path fill-rule="evenodd" clip-rule="evenodd" fill="none" stroke="#E3E5E9" stroke-width="5" stroke-linecap="round" stroke-miterlimit="10" d="
		M64.5,119.5c0,0,19.133-16.267,40,1"/>
</g>
</svg>
