<?xml version="1.0" encoding="utf-8"?>
<!-- Generator: Adobe Illustrator 16.0.0, SVG Export Plug-In . SVG Version: 6.00 Build 0)  -->
<!DOCTYPE svg PUBLIC "-//W3C//DTD SVG 1.1//EN" "http://www.w3.org/Graphics/SVG/1.1/DTD/svg11.dtd">
<svg version="1.1" id="图层_1" xmlns="http://www.w3.org/2000/svg" xmlns:xlink="http://www.w3.org/1999/xlink" x="0px" y="0px"
	 width="166px" height="175px" viewBox="0 0 166 175" enable-background="new 0 0 166 175" xml:space="preserve">
<g>
	<path fill="none" stroke="#E3E5E9" stroke-width="8" stroke-miterlimit="10" d="M150.917,85.625v1.354L150.9,87.1
		c0,10.3,0.199,20.3-0.801,29.7c-1,9.4-3.899,20.4-11.699,27c-8.7,7.3-16.7,8.7-26,9.2c-6.7,0.4-18.7,0.8-27,1l0,0
		c-0.604,0-1.2,0-1.9,0s-1.3,0-1.9,0l0,0c-8.3-0.1-20.3-0.6-27-1c-9.3-0.5-17.3-1.9-26-9.2c-7.8-6.6-10.7-17.7-11.7-27
		c-0.9-8.3-0.8-17.2-0.8-26.3l0,0V79.2l0,0c0-8.1,0-15.9,0.8-23.3c1-9.3,3.9-20.4,11.7-27c8.7-7.3,16.7-8.7,26-9.2
		c7.8-0.4,18.9-0.5,26.8-0.5l0,0h8.1l0,0c7.4,0,16.3,0.1,22.8,0.5c9.3,0.5,17.3,1.9,26,9.2c7.8,6.6,10.8,17.7,11.7,27
		C150.9,65.2,150.917,75.225,150.917,85.625L150.917,85.625z"/>
</g>
<g>
	<path fill="#E3E5E9" d="M59.286,84.527C57.854,84.35,52.95,84.26,51.5,84.26v-4.641c1.641,0,6.736,0.103,8.357,0.304L59.286,84.527
		z"/>
	<path fill="#E3E5E9" d="M88.6,110.188c-0.777-2.961-1.949-5.81-3.479-8.468l4.021-2.315c1.736,3.015,3.064,6.246,3.947,9.604
		L88.6,110.188z M82.57,97.898c-1.866-2.434-4.048-4.613-6.482-6.479l2.823-3.684c2.757,2.114,5.228,4.583,7.341,7.339L82.57,97.898
		z M72.268,88.873c-2.66-1.531-5.51-2.701-8.473-3.478l1.178-4.489c3.359,0.882,6.593,2.209,9.609,3.944L72.268,88.873z"/>
	<path fill="#E3E5E9" d="M94.38,122.5h-4.64c0-1.455-0.09-6.357-0.27-7.785l4.604-0.574C94.277,115.758,94.38,120.854,94.38,122.5z"
		/>
	<path fill="#E3E5E9" d="M59.389,65.882c-1.47-0.122-6.407-0.183-7.889-0.183v-4.64c1.607,0,6.674,0.067,8.27,0.198L59.389,65.882z"
		/>
	<path fill="#E3E5E9" d="M107.43,109.402c-0.521-2.852-1.281-5.676-2.26-8.396l4.366-1.57c1.063,2.961,1.891,6.033,2.457,9.133
		L107.43,109.402z M103.165,96.188c-1.242-2.61-2.709-5.145-4.362-7.524l3.813-2.646c1.796,2.588,3.392,5.34,4.74,8.18
		L103.165,96.188z M95.617,84.522c-1.875-2.206-3.945-4.276-6.154-6.152l3.004-3.536c2.4,2.038,4.649,4.287,6.688,6.684
		L95.617,84.522z M85.32,75.186c-2.383-1.653-4.916-3.12-7.528-4.36l1.99-4.191c2.839,1.348,5.593,2.942,8.183,4.739L85.32,75.186z
		 M72.969,68.821c-2.723-0.978-5.549-1.736-8.399-2.256l0.832-4.564c3.101,0.565,6.175,1.39,9.136,2.453L72.969,68.821z"/>
	<path fill="#E3E5E9" d="M112.939,122.5h-4.64c0-1.48-0.062-6.419-0.183-7.889l4.625-0.381
		C112.873,115.826,112.939,120.893,112.939,122.5z"/>
	<path fill="#E3E5E9" d="M59.887,47.307c-1.633-0.111-6.738-0.167-8.387-0.167V42.5c1.753,0,6.964,0.06,8.701,0.178L59.887,47.307z"
		/>
	<path fill="#E3E5E9" d="M126.259,109.709c-0.415-3.195-1.052-6.391-1.892-9.493l4.479-1.213c0.896,3.306,1.572,6.707,2.014,10.108
		L126.259,109.709z M123.086,96.004c-1.029-3.047-2.279-6.053-3.714-8.934l4.153-2.066c1.527,3.068,2.857,6.27,3.955,9.514
		L123.086,96.004z M117.293,83.192c-1.607-2.786-3.42-5.492-5.389-8.042l3.673-2.835c2.096,2.714,4.024,5.595,5.735,8.561
		L117.293,83.192z M109.107,71.747c-2.119-2.423-4.422-4.728-6.848-6.849l3.055-3.493c2.58,2.257,5.033,4.709,7.287,7.288
		L109.107,71.747z M98.857,62.101c-2.553-1.97-5.26-3.784-8.047-5.391l2.317-4.02c2.968,1.711,5.849,3.642,8.563,5.738
		L98.857,62.101z M86.928,54.628c-2.885-1.436-5.895-2.687-8.943-3.717l1.486-4.395c3.247,1.097,6.451,2.429,9.524,3.958
		L86.928,54.628z M73.766,49.628c-3.103-0.839-6.297-1.475-9.493-1.889l0.595-4.602c3.404,0.441,6.807,1.118,10.111,2.012
		L73.766,49.628z"/>
	<path fill="#E3E5E9" d="M131.5,122.5h-4.641c0-1.646-0.057-6.752-0.166-8.387l4.629-0.314
		C131.439,115.539,131.5,120.749,131.5,122.5z"/>
</g>
<g>
	<path fill-rule="evenodd" clip-rule="evenodd" fill="none" stroke="#E3E5E9" stroke-width="4" stroke-miterlimit="10" d="
		M60.5,103.5c5.523,0,10,4.477,10,10s-4.477,10-10,10c-5.523,0-10-4.477-10-10S54.977,103.5,60.5,103.5z"/>
</g>
</svg>
