<?xml version="1.0" encoding="utf-8"?>
<!-- Generator: Adobe Illustrator 16.0.0, SVG Export Plug-In . SVG Version: 6.00 Build 0)  -->
<!DOCTYPE svg PUBLIC "-//W3C//DTD SVG 1.1//EN" "http://www.w3.org/Graphics/SVG/1.1/DTD/svg11.dtd">
<svg version="1.1" id="图层_1" xmlns="http://www.w3.org/2000/svg" xmlns:xlink="http://www.w3.org/1999/xlink" x="0px" y="0px"
	 width="29.5px" height="38.3px" viewBox="0 0 29.5 38.3" enable-background="new 0 0 29.5 38.3" xml:space="preserve">
<g>
	<path fill-rule="evenodd" clip-rule="evenodd" fill="#C7C7C7" d="M6.7,35c-0.6-0.6-0.7-1.4-0.2-1.9l14.3-14.3
		c0.5-0.5,1.3-0.4,1.9,0.2l0,0c0.6,0.6,0.7,1.4,0.2,1.9L8.6,35.2C8.2,35.6,7.3,35.6,6.7,35L6.7,35z"/>
	<path fill-rule="evenodd" clip-rule="evenodd" fill="#C7C7C7" d="M6.8,5c0.6-0.6,1.4-0.7,1.9-0.2l14.3,14.3
		c0.5,0.5,0.4,1.3-0.2,1.9l0,0c-0.6,0.6-1.4,0.7-1.9,0.2L6.6,6.9C6.1,6.4,6.2,5.6,6.8,5L6.8,5z"/>
</g>
</svg>
